<mxfile host="app.diagrams.net" modified="2023-02-08T04:14:51.510Z" agent="5.0 (Windows NT 10.0; Win64; x64) AppleWebKit/537.36 (KHTML, like Gecko) Chrome/109.0.0.0 Safari/537.36" version="20.8.5" etag="6jgXaNc1BW7fc568lycu" type="github">
  <diagram id="2U2p28f0mnYz3ekKuTyx" name="Page-1">
    <mxGraphModel dx="3056" dy="1212" grid="1" gridSize="10" guides="1" tooltips="1" connect="1" arrows="1" fold="1" page="1" pageScale="1" pageWidth="850" pageHeight="1100" math="0" shadow="0">
      <root>
        <mxCell id="0" />
        <mxCell id="1" parent="0" />
        <mxCell id="xCd3QbelAcNU7HZxefX6-14" value="" style="edgeStyle=orthogonalEdgeStyle;rounded=0;orthogonalLoop=1;jettySize=auto;html=1;" edge="1" parent="1" source="xCd3QbelAcNU7HZxefX6-10" target="xCd3QbelAcNU7HZxefX6-13">
          <mxGeometry relative="1" as="geometry" />
        </mxCell>
        <mxCell id="xCd3QbelAcNU7HZxefX6-10" value="Start" style="ellipse;whiteSpace=wrap;html=1;" vertex="1" parent="1">
          <mxGeometry x="-280" y="70" width="120" height="80" as="geometry" />
        </mxCell>
        <mxCell id="xCd3QbelAcNU7HZxefX6-16" value="" style="edgeStyle=orthogonalEdgeStyle;rounded=0;orthogonalLoop=1;jettySize=auto;html=1;" edge="1" parent="1" source="xCd3QbelAcNU7HZxefX6-13" target="xCd3QbelAcNU7HZxefX6-15">
          <mxGeometry relative="1" as="geometry" />
        </mxCell>
        <mxCell id="xCd3QbelAcNU7HZxefX6-13" value="Payment" style="rounded=1;whiteSpace=wrap;html=1;" vertex="1" parent="1">
          <mxGeometry x="-80" y="80" width="120" height="60" as="geometry" />
        </mxCell>
        <mxCell id="xCd3QbelAcNU7HZxefX6-18" value="" style="edgeStyle=orthogonalEdgeStyle;rounded=0;orthogonalLoop=1;jettySize=auto;html=1;" edge="1" parent="1" source="xCd3QbelAcNU7HZxefX6-15" target="xCd3QbelAcNU7HZxefX6-17">
          <mxGeometry relative="1" as="geometry" />
        </mxCell>
        <mxCell id="xCd3QbelAcNU7HZxefX6-15" value="get data from tabel billing payment point" style="rounded=1;whiteSpace=wrap;html=1;" vertex="1" parent="1">
          <mxGeometry x="110" y="80" width="120" height="60" as="geometry" />
        </mxCell>
        <mxCell id="xCd3QbelAcNU7HZxefX6-20" value="Y" style="edgeStyle=orthogonalEdgeStyle;rounded=0;orthogonalLoop=1;jettySize=auto;html=1;" edge="1" parent="1" source="xCd3QbelAcNU7HZxefX6-17" target="xCd3QbelAcNU7HZxefX6-19">
          <mxGeometry relative="1" as="geometry" />
        </mxCell>
        <mxCell id="xCd3QbelAcNU7HZxefX6-22" value="N" style="edgeStyle=orthogonalEdgeStyle;rounded=0;orthogonalLoop=1;jettySize=auto;html=1;" edge="1" parent="1" source="xCd3QbelAcNU7HZxefX6-17" target="xCd3QbelAcNU7HZxefX6-21">
          <mxGeometry relative="1" as="geometry" />
        </mxCell>
        <mxCell id="xCd3QbelAcNU7HZxefX6-17" value="Amount &amp;lt; Minimum Amount ?" style="rhombus;whiteSpace=wrap;html=1;rounded=1;" vertex="1" parent="1">
          <mxGeometry x="330" y="32.5" width="180" height="155" as="geometry" />
        </mxCell>
        <mxCell id="xCd3QbelAcNU7HZxefX6-19" value="Unsufficient Amount" style="whiteSpace=wrap;html=1;rounded=1;" vertex="1" parent="1">
          <mxGeometry x="570" y="80" width="120" height="60" as="geometry" />
        </mxCell>
        <mxCell id="xCd3QbelAcNU7HZxefX6-25" value="" style="edgeStyle=orthogonalEdgeStyle;rounded=0;orthogonalLoop=1;jettySize=auto;html=1;" edge="1" parent="1" source="xCd3QbelAcNU7HZxefX6-21" target="xCd3QbelAcNU7HZxefX6-24">
          <mxGeometry relative="1" as="geometry" />
        </mxCell>
        <mxCell id="xCd3QbelAcNU7HZxefX6-21" value="Generate Reference No" style="rounded=1;whiteSpace=wrap;html=1;" vertex="1" parent="1">
          <mxGeometry x="345" y="240" width="150" height="60" as="geometry" />
        </mxCell>
        <mxCell id="xCd3QbelAcNU7HZxefX6-28" value="" style="edgeStyle=orthogonalEdgeStyle;rounded=0;orthogonalLoop=1;jettySize=auto;html=1;" edge="1" parent="1" source="xCd3QbelAcNU7HZxefX6-24" target="xCd3QbelAcNU7HZxefX6-27">
          <mxGeometry relative="1" as="geometry" />
        </mxCell>
        <mxCell id="xCd3QbelAcNU7HZxefX6-24" value="exec SP&lt;br&gt;bfidb.dbo.spGetNoTransaction" style="whiteSpace=wrap;html=1;rounded=1;" vertex="1" parent="1">
          <mxGeometry x="325" y="350" width="190" height="60" as="geometry" />
        </mxCell>
        <mxCell id="xCd3QbelAcNU7HZxefX6-30" value="" style="edgeStyle=orthogonalEdgeStyle;rounded=0;orthogonalLoop=1;jettySize=auto;html=1;" edge="1" parent="1" source="xCd3QbelAcNU7HZxefX6-27" target="xCd3QbelAcNU7HZxefX6-29">
          <mxGeometry relative="1" as="geometry" />
        </mxCell>
        <mxCell id="xCd3QbelAcNU7HZxefX6-27" value="insert tabel transaction" style="whiteSpace=wrap;html=1;rounded=1;" vertex="1" parent="1">
          <mxGeometry x="345" y="450" width="150" height="60" as="geometry" />
        </mxCell>
        <mxCell id="xCd3QbelAcNU7HZxefX6-33" value="" style="edgeStyle=orthogonalEdgeStyle;rounded=0;orthogonalLoop=1;jettySize=auto;html=1;" edge="1" parent="1" source="xCd3QbelAcNU7HZxefX6-29" target="xCd3QbelAcNU7HZxefX6-32">
          <mxGeometry relative="1" as="geometry" />
        </mxCell>
        <mxCell id="xCd3QbelAcNU7HZxefX6-29" value="Update Data Tabel&lt;br&gt;Billing Payment Point" style="whiteSpace=wrap;html=1;rounded=1;" vertex="1" parent="1">
          <mxGeometry x="350" y="560" width="140" height="60" as="geometry" />
        </mxCell>
        <mxCell id="xCd3QbelAcNU7HZxefX6-35" value="" style="edgeStyle=orthogonalEdgeStyle;rounded=0;orthogonalLoop=1;jettySize=auto;html=1;" edge="1" parent="1" source="xCd3QbelAcNU7HZxefX6-32" target="xCd3QbelAcNU7HZxefX6-34">
          <mxGeometry relative="1" as="geometry" />
        </mxCell>
        <mxCell id="xCd3QbelAcNU7HZxefX6-32" value="Check Data Tabel&lt;br&gt;Billing Payment Point" style="rounded=1;whiteSpace=wrap;html=1;" vertex="1" parent="1">
          <mxGeometry x="360" y="680" width="120" height="60" as="geometry" />
        </mxCell>
        <mxCell id="xCd3QbelAcNU7HZxefX6-38" value="" style="edgeStyle=orthogonalEdgeStyle;rounded=0;orthogonalLoop=1;jettySize=auto;html=1;" edge="1" parent="1" source="xCd3QbelAcNU7HZxefX6-34" target="xCd3QbelAcNU7HZxefX6-37">
          <mxGeometry relative="1" as="geometry" />
        </mxCell>
        <mxCell id="xCd3QbelAcNU7HZxefX6-39" value="CONFINS" style="edgeLabel;html=1;align=center;verticalAlign=middle;resizable=0;points=[];" vertex="1" connectable="0" parent="xCd3QbelAcNU7HZxefX6-38">
          <mxGeometry x="-0.2757" y="2" relative="1" as="geometry">
            <mxPoint x="-1" as="offset" />
          </mxGeometry>
        </mxCell>
        <mxCell id="xCd3QbelAcNU7HZxefX6-41" value="BRAVO" style="edgeStyle=orthogonalEdgeStyle;rounded=0;orthogonalLoop=1;jettySize=auto;html=1;" edge="1" parent="1" source="xCd3QbelAcNU7HZxefX6-34" target="xCd3QbelAcNU7HZxefX6-40">
          <mxGeometry relative="1" as="geometry" />
        </mxCell>
        <mxCell id="xCd3QbelAcNU7HZxefX6-34" value="Source Billing ?" style="rhombus;whiteSpace=wrap;html=1;rounded=1;" vertex="1" parent="1">
          <mxGeometry x="360" y="810" width="120" height="80" as="geometry" />
        </mxCell>
        <mxCell id="xCd3QbelAcNU7HZxefX6-45" style="edgeStyle=orthogonalEdgeStyle;rounded=0;orthogonalLoop=1;jettySize=auto;html=1;entryX=1;entryY=0.5;entryDx=0;entryDy=0;" edge="1" parent="1" source="xCd3QbelAcNU7HZxefX6-37" target="xCd3QbelAcNU7HZxefX6-42">
          <mxGeometry relative="1" as="geometry">
            <Array as="points">
              <mxPoint x="780" y="950" />
            </Array>
          </mxGeometry>
        </mxCell>
        <mxCell id="xCd3QbelAcNU7HZxefX6-37" value="EXEC spPayment_CreatePostingPaymentConfinsJson" style="whiteSpace=wrap;html=1;rounded=1;" vertex="1" parent="1">
          <mxGeometry x="610" y="820" width="350" height="60" as="geometry" />
        </mxCell>
        <mxCell id="xCd3QbelAcNU7HZxefX6-44" style="edgeStyle=orthogonalEdgeStyle;rounded=0;orthogonalLoop=1;jettySize=auto;html=1;entryX=0;entryY=0.5;entryDx=0;entryDy=0;" edge="1" parent="1" source="xCd3QbelAcNU7HZxefX6-40" target="xCd3QbelAcNU7HZxefX6-42">
          <mxGeometry relative="1" as="geometry">
            <Array as="points">
              <mxPoint x="90" y="950" />
            </Array>
          </mxGeometry>
        </mxCell>
        <mxCell id="xCd3QbelAcNU7HZxefX6-40" value="EXEC spPayment_CreateReturnPPBravoJson" style="whiteSpace=wrap;html=1;rounded=1;" vertex="1" parent="1">
          <mxGeometry x="-50" y="820" width="280" height="60" as="geometry" />
        </mxCell>
        <mxCell id="xCd3QbelAcNU7HZxefX6-42" value="Insert into table AISDB.Core.outbox_polling" style="whiteSpace=wrap;html=1;rounded=1;" vertex="1" parent="1">
          <mxGeometry x="330" y="930" width="190" height="60" as="geometry" />
        </mxCell>
      </root>
    </mxGraphModel>
  </diagram>
</mxfile>
